PathFileType	4	(X/Y/Z)	28_1_15_p1_0-296.trc
DataRate	CameraRate	NumFrames	NumMarkers	Units	OrigDataRate	OrigDataStartFrame	OrigNumFrames
60.0	60.0	5	27	m	60.0	185	297
Frame#	Time	RHip			RKnee			RAnkle			RBigToe			RSmallToe			RHeel			LHip			LKnee			LAnkle			LBigToe			LSmallToe			LHeel			Neck			Head			Nose			RShoulder			RElbow			RWrist			RThumb			RIndex			RPinky			LShoulder			LElbow			LWrist			LThumb			LIndex			LPinky			
		X1	Y1	Z1	X2	Y2	Z2	X3	Y3	Z3	X4	Y4	Z4	X5	Y5	Z5	X6	Y6	Z6	X7	Y7	Z7	X8	Y8	Z8	X9	Y9	Z9	X10	Y10	Z10	X11	Y11	Z11	X12	Y12	Z12	X13	Y13	Z13	X14	Y14	Z14	X15	Y15	Z15	X16	Y16	Z16	X17	Y17	Z17	X18	Y18	Z18	X19	Y19	Z19	X20	Y20	Z20	X21	Y21	Z21	X22	Y22	Z22	X23	Y23	Z23	X24	Y24	Z24	X25	Y25	Z25	X26	Y26	Z26	X27	Y27	Z27	
185	3.0833333333333335	0.22132804816315532	0.5913317156110368	0.9353154316895957	0.22541011220666188	0.847035916478279	1.337125541539324	0.21543191474432313	1.0425359131280902	1.7285916999883462	0.18268569401068868	0.9129550132727753	1.8038215968202937	0.2544859136827462	0.8912651853535634	1.7926276602569944	0.20328455071753143	1.1697566880032035	1.7796727914214339	-0.003233052402999481	0.6097453681116747	0.9375694743052505	0.014273535453632911	0.7946314789728861	1.3367460067292753	0.020214576503952763	1.07042348706853	1.7531196076345832	0.02020749348683527	0.8843626091067047	1.7984770034893593	-0.03739320519087984	0.9431731420367988	1.805253209071978	0.047018096705527784	1.133374791771291	1.780726507437694	0.09120441952843811	0.3608497180253751	0.32920690603246083	0.10391877953906523	0.23060949257362529	0.11371225023943589	0.10095260242533022	0.18616468407286774	0.26801417620250234	0.2660566762927257	0.392220476772525	0.42452656327925764	0.3049666251095117	0.480894040205975	0.6904450966006052	0.1388580936956753	0.404648586152253	0.9086599864500963	0.08918613607224077	0.38850097959382235	0.9780969969480742	0.06837221470024793	0.4211718717071366	0.9944679919397449	0.07283454386808114	0.46131750616170364	0.9965571061391938	-0.09048147652222578	0.41471283409114973	0.4062497262747218	-0.12119740954193119	0.502573376853757	0.6879742520081165	0.031706070621470225	0.38322200330996026	0.891342185388996	0.13211454309998608	0.37584672177747314	0.9382047856989895	0.1359410809403814	0.38983914850728246	0.9734734709882086	0.08143062439575668	0.4005146180494391	1.0092708085184372
186	3.1	0.2212930139047944	0.5912719480506854	0.93526820993832	0.2254484981404879	0.8469216729787598	1.3370189194093594	0.21544901909175518	1.0425967348343885	1.7286530671267581	0.18276280203343345	0.9130258311689856	1.8038366739297493	0.2546621598544509	0.8917536846662908	1.7926227862560953	0.1986011469973409	1.1522538978290837	1.7767307556104956	-0.0032791027039260866	0.6098256411399835	0.9375846777360622	0.013314578919164304	0.7916756420278805	1.3325094373934359	0.020217024894339505	1.0703441519416017	1.753090963536519	0.020191408804484633	0.8843961659148719	1.7985314825780256	-0.03734577810780824	0.9429376918921579	1.8052106344520316	0.046651085355062426	1.1325041354272127	1.7808436379373827	0.0914424447642934	0.36175022480943303	0.33240106423212007	0.10039122553481504	0.231309290252859	0.11692873416966733	0.10090437900338989	0.1861378504620151	0.26803138129949455	0.26603192868471165	0.3921780478341128	0.4245736399461061	0.30494386342495794	0.48095001851615127	0.6904675453877461	0.1354974802051376	0.3930719635217758	0.9096668398032168	0.08915055533780253	0.3883704796672643	0.9779571762020239	0.07202229460334805	0.40905182949671065	0.9944795445036775	0.07280434527932697	0.46120525900115483	0.9962015311948483	-0.0904626266826491	0.4146212006652337	0.40626236533464366	-0.1211843707232729	0.5024374476301511	0.6878362399722411	0.0317021824097578	0.3830428815204398	0.8912822956615178	0.13204712907168917	0.37579540793312405	0.9381804958207	0.1353167254744379	0.3877872799300204	0.9704340301445246	0.08142331393067516	0.40055898053965944	1.0093339630999956
187	3.1166666666666667	0.22130507062913898	0.5913834804949519	0.9352985808961397	0.22541847692104947	0.846968107531871	1.3371745117215026	0.21541630258583502	1.0426834764690616	1.7287357773856236	0.18588141766557462	0.8957994631942886	1.7997020940288067	0.2500849873506876	0.8768422607032704	1.7898535793778654	0.20462093378825075	1.1739499984014594	1.7853285194520958	-0.0033955260893111373	0.6095717071048536	0.9375360802187699	0.014281086037807325	0.7946410499323474	1.3367316487721908	0.020163881574541118	1.070563164560355	1.753225414378949	0.020216263558445496	0.8840615564249098	1.7983771990435073	-0.037243712091825164	0.9428154794671799	1.8051305972318947	0.04673596009328521	1.1339641348745846	1.7811436702198429	0.08809251116004355	0.3735999354452033	0.3292609672758437	0.10026839027902933	0.23130746804019736	0.11691865680335742	0.10084983578364505	0.18612012208770032	0.2680172025991572	0.2660330870567746	0.3921744580990737	0.42460624776671807	0.3048656367666585	0.48087606337877614	0.6904766963272362	0.13553749718313662	0.39294569899896886	0.909645638632118	0.0858395651871874	0.37533874251805105	0.9757123219439158	0.07206097391753075	0.4088572357318387	0.9941380061083429	0.07317700273687455	0.46047300998044	0.9932461606988864	-0.09051069947679158	0.41465345401427744	0.4063390473683091	-0.12120215779104747	0.5023742209577756	0.6879588152582788	0.03168893317362952	0.38308131814668345	0.8912764910288876	0.1320518541217707	0.3761489472003997	0.9382379634407411	0.13616375430160416	0.3890260674724394	0.9709275997725012	0.08149808286075551	0.40044132047372255	1.0093231013077562
188	3.1333333333333333	0.22126057642584393	0.5913883086297032	0.9352518831554595	0.22541413842629487	0.8469970226113966	1.3371227379059416	0.21539033492489032	1.0426369744483412	1.7287271851560513	0.17795502575400843	0.8965833654911476	1.7965402079057187	0.2503058659065414	0.8777265943218456	1.7896635360849986	0.20463002208084602	1.173943321518551	1.7854105769274637	-0.0033656924625053938	0.609456211684616	0.9374956018866537	0.013318515565385792	0.7916226684279027	1.332358894116069	0.02009032071747364	1.0706920434973677	1.7533195631545289	0.020173936358666374	0.8841415445143908	1.7983683176092509	-0.037222158430862885	0.943451531275872	1.8052145551117251	0.04705527079602109	1.1357759605312128	1.781307076529051	0.08780190370686973	0.3728017519403993	0.32606953594076116	0.09687972449812085	0.2216245936631337	0.1207980820259655	0.10079749617021518	0.18616471542919708	0.2680244715511717	0.27032323269436603	0.403064299193445	0.42167573517603074	0.3049240170031691	0.48080211338675516	0.6904204991820649	0.13888793994382875	0.4043940961371196	0.9085592391470033	0.08581130428786954	0.3753227561554861	0.9758824761613029	0.07219067724566856	0.40875184692798955	0.9944365651682882	0.07701726400060578	0.4484123724785099	0.9938197794309809	-0.0902468617724533	0.4165993043570587	0.409304253961869	-0.12119977599464953	0.5024280426914318	0.6877734629561767	0.031370006185891246	0.3839417126912618	0.8944183515462432	0.12896847796233415	0.3886039404294325	0.9377247138764165	0.13614187787463763	0.3891342951342225	0.9708845990939997	0.08499813787596316	0.3887655157708526	1.0095626990363649
189	3.15	0.22159699199756064	0.5917682600728927	0.938876077203542	0.22541601452219076	0.8470046097597995	1.33716802500512	0.2188273489123583	1.024992491247459	1.7252596295526468	0.18268011609394674	0.9128717896786678	1.8038239018856674	0.254502208005198	0.8911768592839838	1.7926602755087695	0.20471568658067538	1.173740324062065	1.7852844669691639	-0.006906047523124764	0.5971790774185997	0.9382620234709718	0.014267039895279188	0.7947926725131883	1.3366168613072307	0.021106731023995996	1.068602080348872	1.7484704311959725	0.019985755394037186	0.883796027306035	1.798392045497631	-0.03748759871528403	0.9430182021152775	1.8052205740969243	0.046806882907393745	1.1337364975819246	1.7809823354245058	0.08783141175668163	0.3728373156332819	0.3258877634371959	0.09678255306284385	0.22134511548480743	0.12085339748140973	0.10069050436330208	0.18635297493908876	0.2679974388846888	0.2659910278742709	0.3913598338031093	0.42116913322365934	0.3051179526606116	0.47977508392305135	0.6873120057431946	0.13893977376025687	0.40456017108393194	0.9083741934655504	0.08970666697105938	0.38740752210325785	0.9748125005719226	0.07625083208632596	0.42011225684263803	0.9905174803393292	0.0770853425272515	0.4484508954959849	0.9938298363359805	-0.09057676419252837	0.4146437666051178	0.4062009446252618	-0.12119743947269958	0.5023530219376942	0.687849614516992	0.03178804646078913	0.3828763338569074	0.8911746767574718	0.13189835490973584	0.37582013652592605	0.9379120371918485	0.13590041591111932	0.387004279185356	0.9673655573059101	0.08496359297322542	0.38873694736046227	1.0093607869256382
